<?xml version="1.0" encoding="utf-8" standalone="no"?>
<!DOCTYPE svg PUBLIC "-//W3C//DTD SVG 1.1//EN"
  "http://www.w3.org/Graphics/SVG/1.1/DTD/svg11.dtd">
<svg xmlns:xlink="http://www.w3.org/1999/xlink" width="816.800625pt" height="356.471719pt" viewBox="0 0 816.800625 356.471719" xmlns="http://www.w3.org/2000/svg" version="1.1">
 <metadata>
  <rdf:RDF xmlns:dc="http://purl.org/dc/elements/1.1/" xmlns:cc="http://creativecommons.org/ns#" xmlns:rdf="http://www.w3.org/1999/02/22-rdf-syntax-ns#">
   <cc:Work>
    <dc:type rdf:resource="http://purl.org/dc/dcmitype/StillImage"/>
    <dc:format>image/svg+xml</dc:format>
    <dc:creator>
     <cc:Agent>
      <dc:title>Matplotlib v3.10.8, https://matplotlib.org/</dc:title>
     </cc:Agent>
    </dc:creator>
   </cc:Work>
  </rdf:RDF>
 </metadata>
 <defs>
  <style type="text/css">*{stroke-linejoin: round; stroke-linecap: butt}</style>
 </defs>
 <g id="figure_1">
  <g id="patch_1">
   <path d="M 0 356.471719 
L 816.800625 356.471719 
L 816.800625 0 
L 0 0 
z
" style="fill: #ffffff"/>
  </g>
  <g id="axes_1">
   <g id="patch_2">
    <path d="M 112.640625 273.6 
L 809.600625 273.6 
L 809.600625 61.2 
L 112.640625 61.2 
z
" style="fill: #ffffff"/>
   </g>
   <g id="matplotlib.axis_1">
    <g id="text_1">
     <!-- Fusion minus comparator MAE, EF percentage points · negative favors fusion -->
     <g transform="translate(268.476094 285.198437) scale(0.1 -0.1)">
      <defs>
       <path id="DejaVuSans-46" d="M 628 4666 
L 3309 4666 
L 3309 4134 
L 1259 4134 
L 1259 2759 
L 3109 2759 
L 3109 2228 
L 1259 2228 
L 1259 0 
L 628 0 
L 628 4666 
z
" transform="scale(0.015625)"/>
       <path id="DejaVuSans-75" d="M 544 1381 
L 544 3500 
L 1119 3500 
L 1119 1403 
Q 1119 906 1312 657 
Q 1506 409 1894 409 
Q 2359 409 2629 706 
Q 2900 1003 2900 1516 
L 2900 3500 
L 3475 3500 
L 3475 0 
L 2900 0 
L 2900 538 
Q 2691 219 2414 64 
Q 2138 -91 1772 -91 
Q 1169 -91 856 284 
Q 544 659 544 1381 
z
M 1991 3584 
L 1991 3584 
z
" transform="scale(0.015625)"/>
       <path id="DejaVuSans-73" d="M 2834 3397 
L 2834 2853 
Q 2591 2978 2328 3040 
Q 2066 3103 1784 3103 
Q 1356 3103 1142 2972 
Q 928 2841 928 2578 
Q 928 2378 1081 2264 
Q 1234 2150 1697 2047 
L 1894 2003 
Q 2506 1872 2764 1633 
Q 3022 1394 3022 966 
Q 3022 478 2636 193 
Q 2250 -91 1575 -91 
Q 1294 -91 989 -36 
Q 684 19 347 128 
L 347 722 
Q 666 556 975 473 
Q 1284 391 1588 391 
Q 1994 391 2212 530 
Q 2431 669 2431 922 
Q 2431 1156 2273 1281 
Q 2116 1406 1581 1522 
L 1381 1569 
Q 847 1681 609 1914 
Q 372 2147 372 2553 
Q 372 3047 722 3315 
Q 1072 3584 1716 3584 
Q 2034 3584 2315 3537 
Q 2597 3491 2834 3397 
z
" transform="scale(0.015625)"/>
       <path id="DejaVuSans-69" d="M 603 3500 
L 1178 3500 
L 1178 0 
L 603 0 
L 603 3500 
z
M 603 4863 
L 1178 4863 
L 1178 4134 
L 603 4134 
L 603 4863 
z
" transform="scale(0.015625)"/>
       <path id="DejaVuSans-6f" d="M 1959 3097 
Q 1497 3097 1228 2736 
Q 959 2375 959 1747 
Q 959 1119 1226 758 
Q 1494 397 1959 397 
Q 2419 397 2687 759 
Q 2956 1122 2956 1747 
Q 2956 2369 2687 2733 
Q 2419 3097 1959 3097 
z
M 1959 3584 
Q 2709 3584 3137 3096 
Q 3566 2609 3566 1747 
Q 3566 888 3137 398 
Q 2709 -91 1959 -91 
Q 1206 -91 779 398 
Q 353 888 353 1747 
Q 353 2609 779 3096 
Q 1206 3584 1959 3584 
z
" transform="scale(0.015625)"/>
       <path id="DejaVuSans-6e" d="M 3513 2113 
L 3513 0 
L 2938 0 
L 2938 2094 
Q 2938 2591 2744 2837 
Q 2550 3084 2163 3084 
Q 1697 3084 1428 2787 
Q 1159 2491 1159 1978 
L 1159 0 
L 581 0 
L 581 3500 
L 1159 3500 
L 1159 2956 
Q 1366 3272 1645 3428 
Q 1925 3584 2291 3584 
Q 2894 3584 3203 3211 
Q 3513 2838 3513 2113 
z
" transform="scale(0.015625)"/>
       <path id="DejaVuSans-20" transform="scale(0.015625)"/>
       <path id="DejaVuSans-6d" d="M 3328 2828 
Q 3544 3216 3844 3400 
Q 4144 3584 4550 3584 
Q 5097 3584 5394 3201 
Q 5691 2819 5691 2113 
L 5691 0 
L 5113 0 
L 5113 2094 
Q 5113 2597 4934 2840 
Q 4756 3084 4391 3084 
Q 3944 3084 3684 2787 
Q 3425 2491 3425 1978 
L 3425 0 
L 2847 0 
L 2847 2094 
Q 2847 2600 2669 2842 
Q 2491 3084 2119 3084 
Q 1678 3084 1418 2786 
Q 1159 2488 1159 1978 
L 1159 0 
L 581 0 
L 581 3500 
L 1159 3500 
L 1159 2956 
Q 1356 3278 1631 3431 
Q 1906 3584 2284 3584 
Q 2666 3584 2933 3390 
Q 3200 3197 3328 2828 
z
" transform="scale(0.015625)"/>
       <path id="DejaVuSans-63" d="M 3122 3366 
L 3122 2828 
Q 2878 2963 2633 3030 
Q 2388 3097 2138 3097 
Q 1578 3097 1268 2742 
Q 959 2388 959 1747 
Q 959 1106 1268 751 
Q 1578 397 2138 397 
Q 2388 397 2633 464 
Q 2878 531 3122 666 
L 3122 134 
Q 2881 22 2623 -34 
Q 2366 -91 2075 -91 
Q 1284 -91 818 406 
Q 353 903 353 1747 
Q 353 2603 823 3093 
Q 1294 3584 2113 3584 
Q 2378 3584 2631 3529 
Q 2884 3475 3122 3366 
z
" transform="scale(0.015625)"/>
       <path id="DejaVuSans-70" d="M 1159 525 
L 1159 -1331 
L 581 -1331 
L 581 3500 
L 1159 3500 
L 1159 2969 
Q 1341 3281 1617 3432 
Q 1894 3584 2278 3584 
Q 2916 3584 3314 3078 
Q 3713 2572 3713 1747 
Q 3713 922 3314 415 
Q 2916 -91 2278 -91 
Q 1894 -91 1617 61 
Q 1341 213 1159 525 
z
M 3116 1747 
Q 3116 2381 2855 2742 
Q 2594 3103 2138 3103 
Q 1681 3103 1420 2742 
Q 1159 2381 1159 1747 
Q 1159 1113 1420 752 
Q 1681 391 2138 391 
Q 2594 391 2855 752 
Q 3116 1113 3116 1747 
z
" transform="scale(0.015625)"/>
       <path id="DejaVuSans-61" d="M 2194 1759 
Q 1497 1759 1228 1600 
Q 959 1441 959 1056 
Q 959 750 1161 570 
Q 1363 391 1709 391 
Q 2188 391 2477 730 
Q 2766 1069 2766 1631 
L 2766 1759 
L 2194 1759 
z
M 3341 1997 
L 3341 0 
L 2766 0 
L 2766 531 
Q 2569 213 2275 61 
Q 1981 -91 1556 -91 
Q 1019 -91 701 211 
Q 384 513 384 1019 
Q 384 1609 779 1909 
Q 1175 2209 1959 2209 
L 2766 2209 
L 2766 2266 
Q 2766 2663 2505 2880 
Q 2244 3097 1772 3097 
Q 1472 3097 1187 3025 
Q 903 2953 641 2809 
L 641 3341 
Q 956 3463 1253 3523 
Q 1550 3584 1831 3584 
Q 2591 3584 2966 3190 
Q 3341 2797 3341 1997 
z
" transform="scale(0.015625)"/>
       <path id="DejaVuSans-72" d="M 2631 2963 
Q 2534 3019 2420 3045 
Q 2306 3072 2169 3072 
Q 1681 3072 1420 2755 
Q 1159 2438 1159 1844 
L 1159 0 
L 581 0 
L 581 3500 
L 1159 3500 
L 1159 2956 
Q 1341 3275 1631 3429 
Q 1922 3584 2338 3584 
Q 2397 3584 2469 3576 
Q 2541 3569 2628 3553 
L 2631 2963 
z
" transform="scale(0.015625)"/>
       <path id="DejaVuSans-74" d="M 1172 4494 
L 1172 3500 
L 2356 3500 
L 2356 3053 
L 1172 3053 
L 1172 1153 
Q 1172 725 1289 603 
Q 1406 481 1766 481 
L 2356 481 
L 2356 0 
L 1766 0 
Q 1100 0 847 248 
Q 594 497 594 1153 
L 594 3053 
L 172 3053 
L 172 3500 
L 594 3500 
L 594 4494 
L 1172 4494 
z
" transform="scale(0.015625)"/>
       <path id="DejaVuSans-4d" d="M 628 4666 
L 1569 4666 
L 2759 1491 
L 3956 4666 
L 4897 4666 
L 4897 0 
L 4281 0 
L 4281 4097 
L 3078 897 
L 2444 897 
L 1241 4097 
L 1241 0 
L 628 0 
L 628 4666 
z
" transform="scale(0.015625)"/>
       <path id="DejaVuSans-41" d="M 2188 4044 
L 1331 1722 
L 3047 1722 
L 2188 4044 
z
M 1831 4666 
L 2547 4666 
L 4325 0 
L 3669 0 
L 3244 1197 
L 1141 1197 
L 716 0 
L 50 0 
L 1831 4666 
z
" transform="scale(0.015625)"/>
       <path id="DejaVuSans-45" d="M 628 4666 
L 3578 4666 
L 3578 4134 
L 1259 4134 
L 1259 2753 
L 3481 2753 
L 3481 2222 
L 1259 2222 
L 1259 531 
L 3634 531 
L 3634 0 
L 628 0 
L 628 4666 
z
" transform="scale(0.015625)"/>
       <path id="DejaVuSans-2c" d="M 750 794 
L 1409 794 
L 1409 256 
L 897 -744 
L 494 -744 
L 750 256 
L 750 794 
z
" transform="scale(0.015625)"/>
       <path id="DejaVuSans-65" d="M 3597 1894 
L 3597 1613 
L 953 1613 
Q 991 1019 1311 708 
Q 1631 397 2203 397 
Q 2534 397 2845 478 
Q 3156 559 3463 722 
L 3463 178 
Q 3153 47 2828 -22 
Q 2503 -91 2169 -91 
Q 1331 -91 842 396 
Q 353 884 353 1716 
Q 353 2575 817 3079 
Q 1281 3584 2069 3584 
Q 2775 3584 3186 3129 
Q 3597 2675 3597 1894 
z
M 3022 2063 
Q 3016 2534 2758 2815 
Q 2500 3097 2075 3097 
Q 1594 3097 1305 2825 
Q 1016 2553 972 2059 
L 3022 2063 
z
" transform="scale(0.015625)"/>
       <path id="DejaVuSans-67" d="M 2906 1791 
Q 2906 2416 2648 2759 
Q 2391 3103 1925 3103 
Q 1463 3103 1205 2759 
Q 947 2416 947 1791 
Q 947 1169 1205 825 
Q 1463 481 1925 481 
Q 2391 481 2648 825 
Q 2906 1169 2906 1791 
z
M 3481 434 
Q 3481 -459 3084 -895 
Q 2688 -1331 1869 -1331 
Q 1566 -1331 1297 -1286 
Q 1028 -1241 775 -1147 
L 775 -588 
Q 1028 -725 1275 -790 
Q 1522 -856 1778 -856 
Q 2344 -856 2625 -561 
Q 2906 -266 2906 331 
L 2906 616 
Q 2728 306 2450 153 
Q 2172 0 1784 0 
Q 1141 0 747 490 
Q 353 981 353 1791 
Q 353 2603 747 3093 
Q 1141 3584 1784 3584 
Q 2172 3584 2450 3431 
Q 2728 3278 2906 2969 
L 2906 3500 
L 3481 3500 
L 3481 434 
z
" transform="scale(0.015625)"/>
       <path id="DejaVuSans-b7" d="M 684 2619 
L 1344 2619 
L 1344 1825 
L 684 1825 
L 684 2619 
z
" transform="scale(0.015625)"/>
       <path id="DejaVuSans-76" d="M 191 3500 
L 800 3500 
L 1894 563 
L 2988 3500 
L 3597 3500 
L 2284 0 
L 1503 0 
L 191 3500 
z
" transform="scale(0.015625)"/>
       <path id="DejaVuSans-66" d="M 2375 4863 
L 2375 4384 
L 1825 4384 
Q 1516 4384 1395 4259 
Q 1275 4134 1275 3809 
L 1275 3500 
L 2222 3500 
L 2222 3053 
L 1275 3053 
L 1275 0 
L 697 0 
L 697 3053 
L 147 3053 
L 147 3500 
L 697 3500 
L 697 3744 
Q 697 4328 969 4595 
Q 1241 4863 1831 4863 
L 2375 4863 
z
" transform="scale(0.015625)"/>
      </defs>
      <use xlink:href="#DejaVuSans-46"/>
      <use xlink:href="#DejaVuSans-75" transform="translate(52.019531 0)"/>
      <use xlink:href="#DejaVuSans-73" transform="translate(115.398438 0)"/>
      <use xlink:href="#DejaVuSans-69" transform="translate(167.498047 0)"/>
      <use xlink:href="#DejaVuSans-6f" transform="translate(195.28125 0)"/>
      <use xlink:href="#DejaVuSans-6e" transform="translate(256.462891 0)"/>
      <use xlink:href="#DejaVuSans-20" transform="translate(319.841797 0)"/>
      <use xlink:href="#DejaVuSans-6d" transform="translate(351.628906 0)"/>
      <use xlink:href="#DejaVuSans-69" transform="translate(449.041016 0)"/>
      <use xlink:href="#DejaVuSans-6e" transform="translate(476.824219 0)"/>
      <use xlink:href="#DejaVuSans-75" transform="translate(540.203125 0)"/>
      <use xlink:href="#DejaVuSans-73" transform="translate(603.582031 0)"/>
      <use xlink:href="#DejaVuSans-20" transform="translate(655.681641 0)"/>
      <use xlink:href="#DejaVuSans-63" transform="translate(687.46875 0)"/>
      <use xlink:href="#DejaVuSans-6f" transform="translate(742.449219 0)"/>
      <use xlink:href="#DejaVuSans-6d" transform="translate(803.630859 0)"/>
      <use xlink:href="#DejaVuSans-70" transform="translate(901.042969 0)"/>
      <use xlink:href="#DejaVuSans-61" transform="translate(964.519531 0)"/>
      <use xlink:href="#DejaVuSans-72" transform="translate(1025.798828 0)"/>
      <use xlink:href="#DejaVuSans-61" transform="translate(1066.912109 0)"/>
      <use xlink:href="#DejaVuSans-74" transform="translate(1128.191406 0)"/>
      <use xlink:href="#DejaVuSans-6f" transform="translate(1167.400391 0)"/>
      <use xlink:href="#DejaVuSans-72" transform="translate(1228.582031 0)"/>
      <use xlink:href="#DejaVuSans-20" transform="translate(1269.695312 0)"/>
      <use xlink:href="#DejaVuSans-4d" transform="translate(1301.482422 0)"/>
      <use xlink:href="#DejaVuSans-41" transform="translate(1387.761719 0)"/>
      <use xlink:href="#DejaVuSans-45" transform="translate(1456.169922 0)"/>
      <use xlink:href="#DejaVuSans-2c" transform="translate(1519.353516 0)"/>
      <use xlink:href="#DejaVuSans-20" transform="translate(1551.140625 0)"/>
      <use xlink:href="#DejaVuSans-45" transform="translate(1582.927734 0)"/>
      <use xlink:href="#DejaVuSans-46" transform="translate(1646.111328 0)"/>
      <use xlink:href="#DejaVuSans-20" transform="translate(1703.630859 0)"/>
      <use xlink:href="#DejaVuSans-70" transform="translate(1735.417969 0)"/>
      <use xlink:href="#DejaVuSans-65" transform="translate(1798.894531 0)"/>
      <use xlink:href="#DejaVuSans-72" transform="translate(1860.417969 0)"/>
      <use xlink:href="#DejaVuSans-63" transform="translate(1899.28125 0)"/>
      <use xlink:href="#DejaVuSans-65" transform="translate(1954.261719 0)"/>
      <use xlink:href="#DejaVuSans-6e" transform="translate(2015.785156 0)"/>
      <use xlink:href="#DejaVuSans-74" transform="translate(2079.164062 0)"/>
      <use xlink:href="#DejaVuSans-61" transform="translate(2118.373047 0)"/>
      <use xlink:href="#DejaVuSans-67" transform="translate(2179.652344 0)"/>
      <use xlink:href="#DejaVuSans-65" transform="translate(2243.128906 0)"/>
      <use xlink:href="#DejaVuSans-20" transform="translate(2304.652344 0)"/>
      <use xlink:href="#DejaVuSans-70" transform="translate(2336.439453 0)"/>
      <use xlink:href="#DejaVuSans-6f" transform="translate(2399.916016 0)"/>
      <use xlink:href="#DejaVuSans-69" transform="translate(2461.097656 0)"/>
      <use xlink:href="#DejaVuSans-6e" transform="translate(2488.880859 0)"/>
      <use xlink:href="#DejaVuSans-74" transform="translate(2552.259766 0)"/>
      <use xlink:href="#DejaVuSans-73" transform="translate(2591.46875 0)"/>
      <use xlink:href="#DejaVuSans-20" transform="translate(2643.568359 0)"/>
      <use xlink:href="#DejaVuSans-b7" transform="translate(2675.355469 0)"/>
      <use xlink:href="#DejaVuSans-20" transform="translate(2707.142578 0)"/>
      <use xlink:href="#DejaVuSans-6e" transform="translate(2738.929688 0)"/>
      <use xlink:href="#DejaVuSans-65" transform="translate(2802.308594 0)"/>
      <use xlink:href="#DejaVuSans-67" transform="translate(2863.832031 0)"/>
      <use xlink:href="#DejaVuSans-61" transform="translate(2927.308594 0)"/>
      <use xlink:href="#DejaVuSans-74" transform="translate(2988.587891 0)"/>
      <use xlink:href="#DejaVuSans-69" transform="translate(3027.796875 0)"/>
      <use xlink:href="#DejaVuSans-76" transform="translate(3055.580078 0)"/>
      <use xlink:href="#DejaVuSans-65" transform="translate(3114.759766 0)"/>
      <use xlink:href="#DejaVuSans-20" transform="translate(3176.283203 0)"/>
      <use xlink:href="#DejaVuSans-66" transform="translate(3208.070312 0)"/>
      <use xlink:href="#DejaVuSans-61" transform="translate(3243.275391 0)"/>
      <use xlink:href="#DejaVuSans-76" transform="translate(3304.554688 0)"/>
      <use xlink:href="#DejaVuSans-6f" transform="translate(3363.734375 0)"/>
      <use xlink:href="#DejaVuSans-72" transform="translate(3424.916016 0)"/>
      <use xlink:href="#DejaVuSans-73" transform="translate(3466.029297 0)"/>
      <use xlink:href="#DejaVuSans-20" transform="translate(3518.128906 0)"/>
      <use xlink:href="#DejaVuSans-66" transform="translate(3549.916016 0)"/>
      <use xlink:href="#DejaVuSans-75" transform="translate(3585.121094 0)"/>
      <use xlink:href="#DejaVuSans-73" transform="translate(3648.5 0)"/>
      <use xlink:href="#DejaVuSans-69" transform="translate(3700.599609 0)"/>
      <use xlink:href="#DejaVuSans-6f" transform="translate(3728.382812 0)"/>
      <use xlink:href="#DejaVuSans-6e" transform="translate(3789.564453 0)"/>
     </g>
    </g>
   </g>
   <g id="matplotlib.axis_2">
    <g id="ytick_1">
     <g id="line2d_1">
      <defs>
       <path id="me214a72200" d="M 0 0 
L -3.5 0 
" style="stroke: #000000; stroke-width: 0.8"/>
      </defs>
      <g>
       <use xlink:href="#me214a72200" x="112.640625" y="121.226087" style="stroke: #000000; stroke-width: 0.8"/>
      </g>
     </g>
     <g id="text_2">
      <!-- Fusion − vision -->
      <g transform="translate(29.78125 125.025306) scale(0.1 -0.1)">
       <defs>
        <path id="DejaVuSans-2212" d="M 678 2272 
L 4684 2272 
L 4684 1741 
L 678 1741 
L 678 2272 
z
" transform="scale(0.015625)"/>
       </defs>
       <use xlink:href="#DejaVuSans-46"/>
       <use xlink:href="#DejaVuSans-75" transform="translate(52.019531 0)"/>
       <use xlink:href="#DejaVuSans-73" transform="translate(115.398438 0)"/>
       <use xlink:href="#DejaVuSans-69" transform="translate(167.498047 0)"/>
       <use xlink:href="#DejaVuSans-6f" transform="translate(195.28125 0)"/>
       <use xlink:href="#DejaVuSans-6e" transform="translate(256.462891 0)"/>
       <use xlink:href="#DejaVuSans-20" transform="translate(319.841797 0)"/>
       <use xlink:href="#DejaVuSans-2212" transform="translate(351.628906 0)"/>
       <use xlink:href="#DejaVuSans-20" transform="translate(435.417969 0)"/>
       <use xlink:href="#DejaVuSans-76" transform="translate(467.205078 0)"/>
       <use xlink:href="#DejaVuSans-69" transform="translate(526.384766 0)"/>
       <use xlink:href="#DejaVuSans-73" transform="translate(554.167969 0)"/>
       <use xlink:href="#DejaVuSans-69" transform="translate(606.267578 0)"/>
       <use xlink:href="#DejaVuSans-6f" transform="translate(634.050781 0)"/>
       <use xlink:href="#DejaVuSans-6e" transform="translate(695.232422 0)"/>
      </g>
     </g>
    </g>
    <g id="ytick_2">
     <g id="line2d_2">
      <g>
       <use xlink:href="#me214a72200" x="112.640625" y="213.573913" style="stroke: #000000; stroke-width: 0.8"/>
      </g>
     </g>
     <g id="text_3">
      <!-- Fusion − structured -->
      <g transform="translate(7.2 217.373132) scale(0.1 -0.1)">
       <defs>
        <path id="DejaVuSans-64" d="M 2906 2969 
L 2906 4863 
L 3481 4863 
L 3481 0 
L 2906 0 
L 2906 525 
Q 2725 213 2448 61 
Q 2172 -91 1784 -91 
Q 1150 -91 751 415 
Q 353 922 353 1747 
Q 353 2572 751 3078 
Q 1150 3584 1784 3584 
Q 2172 3584 2448 3432 
Q 2725 3281 2906 2969 
z
M 947 1747 
Q 947 1113 1208 752 
Q 1469 391 1925 391 
Q 2381 391 2643 752 
Q 2906 1113 2906 1747 
Q 2906 2381 2643 2742 
Q 2381 3103 1925 3103 
Q 1469 3103 1208 2742 
Q 947 2381 947 1747 
z
" transform="scale(0.015625)"/>
       </defs>
       <use xlink:href="#DejaVuSans-46"/>
       <use xlink:href="#DejaVuSans-75" transform="translate(52.019531 0)"/>
       <use xlink:href="#DejaVuSans-73" transform="translate(115.398438 0)"/>
       <use xlink:href="#DejaVuSans-69" transform="translate(167.498047 0)"/>
       <use xlink:href="#DejaVuSans-6f" transform="translate(195.28125 0)"/>
       <use xlink:href="#DejaVuSans-6e" transform="translate(256.462891 0)"/>
       <use xlink:href="#DejaVuSans-20" transform="translate(319.841797 0)"/>
       <use xlink:href="#DejaVuSans-2212" transform="translate(351.628906 0)"/>
       <use xlink:href="#DejaVuSans-20" transform="translate(435.417969 0)"/>
       <use xlink:href="#DejaVuSans-73" transform="translate(467.205078 0)"/>
       <use xlink:href="#DejaVuSans-74" transform="translate(519.304688 0)"/>
       <use xlink:href="#DejaVuSans-72" transform="translate(558.513672 0)"/>
       <use xlink:href="#DejaVuSans-75" transform="translate(599.626953 0)"/>
       <use xlink:href="#DejaVuSans-63" transform="translate(663.005859 0)"/>
       <use xlink:href="#DejaVuSans-74" transform="translate(717.986328 0)"/>
       <use xlink:href="#DejaVuSans-75" transform="translate(757.195312 0)"/>
       <use xlink:href="#DejaVuSans-72" transform="translate(820.574219 0)"/>
       <use xlink:href="#DejaVuSans-65" transform="translate(859.4375 0)"/>
       <use xlink:href="#DejaVuSans-64" transform="translate(920.960938 0)"/>
      </g>
     </g>
    </g>
   </g>
   <g id="patch_3">
    <path d="M 112.640625 273.6 
L 112.640625 61.2 
" style="fill: none; stroke: #000000; stroke-width: 0.8; stroke-linejoin: miter; stroke-linecap: square"/>
   </g>
   <g id="patch_4">
    <path d="M 112.640625 273.6 
L 809.600625 273.6 
" style="fill: none; stroke: #000000; stroke-width: 0.8; stroke-linejoin: miter; stroke-linecap: square"/>
   </g>
   <g id="text_4">
    <!-- PENDING paired effect and interval -->
    <g style="fill: #536b80" transform="translate(373.23625 121.226087) scale(0.1 -0.1)">
     <defs>
      <path id="DejaVuSans-50" d="M 1259 4147 
L 1259 2394 
L 2053 2394 
Q 2494 2394 2734 2622 
Q 2975 2850 2975 3272 
Q 2975 3691 2734 3919 
Q 2494 4147 2053 4147 
L 1259 4147 
z
M 628 4666 
L 2053 4666 
Q 2838 4666 3239 4311 
Q 3641 3956 3641 3272 
Q 3641 2581 3239 2228 
Q 2838 1875 2053 1875 
L 1259 1875 
L 1259 0 
L 628 0 
L 628 4666 
z
" transform="scale(0.015625)"/>
      <path id="DejaVuSans-4e" d="M 628 4666 
L 1478 4666 
L 3547 763 
L 3547 4666 
L 4159 4666 
L 4159 0 
L 3309 0 
L 1241 3903 
L 1241 0 
L 628 0 
L 628 4666 
z
" transform="scale(0.015625)"/>
      <path id="DejaVuSans-44" d="M 1259 4147 
L 1259 519 
L 2022 519 
Q 2988 519 3436 956 
Q 3884 1394 3884 2338 
Q 3884 3275 3436 3711 
Q 2988 4147 2022 4147 
L 1259 4147 
z
M 628 4666 
L 1925 4666 
Q 3281 4666 3915 4102 
Q 4550 3538 4550 2338 
Q 4550 1131 3912 565 
Q 3275 0 1925 0 
L 628 0 
L 628 4666 
z
" transform="scale(0.015625)"/>
      <path id="DejaVuSans-49" d="M 628 4666 
L 1259 4666 
L 1259 0 
L 628 0 
L 628 4666 
z
" transform="scale(0.015625)"/>
      <path id="DejaVuSans-47" d="M 3809 666 
L 3809 1919 
L 2778 1919 
L 2778 2438 
L 4434 2438 
L 4434 434 
Q 4069 175 3628 42 
Q 3188 -91 2688 -91 
Q 1594 -91 976 548 
Q 359 1188 359 2328 
Q 359 3472 976 4111 
Q 1594 4750 2688 4750 
Q 3144 4750 3555 4637 
Q 3966 4525 4313 4306 
L 4313 3634 
Q 3963 3931 3569 4081 
Q 3175 4231 2741 4231 
Q 1884 4231 1454 3753 
Q 1025 3275 1025 2328 
Q 1025 1384 1454 906 
Q 1884 428 2741 428 
Q 3075 428 3337 486 
Q 3600 544 3809 666 
z
" transform="scale(0.015625)"/>
      <path id="DejaVuSans-6c" d="M 603 4863 
L 1178 4863 
L 1178 0 
L 603 0 
L 603 4863 
z
" transform="scale(0.015625)"/>
     </defs>
     <use xlink:href="#DejaVuSans-50"/>
     <use xlink:href="#DejaVuSans-45" transform="translate(60.302734 0)"/>
     <use xlink:href="#DejaVuSans-4e" transform="translate(123.486328 0)"/>
     <use xlink:href="#DejaVuSans-44" transform="translate(198.291016 0)"/>
     <use xlink:href="#DejaVuSans-49" transform="translate(275.292969 0)"/>
     <use xlink:href="#DejaVuSans-4e" transform="translate(304.785156 0)"/>
     <use xlink:href="#DejaVuSans-47" transform="translate(379.589844 0)"/>
     <use xlink:href="#DejaVuSans-20" transform="translate(457.080078 0)"/>
     <use xlink:href="#DejaVuSans-70" transform="translate(488.867188 0)"/>
     <use xlink:href="#DejaVuSans-61" transform="translate(552.34375 0)"/>
     <use xlink:href="#DejaVuSans-69" transform="translate(613.623047 0)"/>
     <use xlink:href="#DejaVuSans-72" transform="translate(641.40625 0)"/>
     <use xlink:href="#DejaVuSans-65" transform="translate(680.269531 0)"/>
     <use xlink:href="#DejaVuSans-64" transform="translate(741.792969 0)"/>
     <use xlink:href="#DejaVuSans-20" transform="translate(805.269531 0)"/>
     <use xlink:href="#DejaVuSans-65" transform="translate(837.056641 0)"/>
     <use xlink:href="#DejaVuSans-66" transform="translate(898.580078 0)"/>
     <use xlink:href="#DejaVuSans-66" transform="translate(933.785156 0)"/>
     <use xlink:href="#DejaVuSans-65" transform="translate(968.990234 0)"/>
     <use xlink:href="#DejaVuSans-63" transform="translate(1030.513672 0)"/>
     <use xlink:href="#DejaVuSans-74" transform="translate(1085.494141 0)"/>
     <use xlink:href="#DejaVuSans-20" transform="translate(1124.703125 0)"/>
     <use xlink:href="#DejaVuSans-61" transform="translate(1156.490234 0)"/>
     <use xlink:href="#DejaVuSans-6e" transform="translate(1217.769531 0)"/>
     <use xlink:href="#DejaVuSans-64" transform="translate(1281.148438 0)"/>
     <use xlink:href="#DejaVuSans-20" transform="translate(1344.625 0)"/>
     <use xlink:href="#DejaVuSans-69" transform="translate(1376.412109 0)"/>
     <use xlink:href="#DejaVuSans-6e" transform="translate(1404.195312 0)"/>
     <use xlink:href="#DejaVuSans-74" transform="translate(1467.574219 0)"/>
     <use xlink:href="#DejaVuSans-65" transform="translate(1506.783203 0)"/>
     <use xlink:href="#DejaVuSans-72" transform="translate(1568.306641 0)"/>
     <use xlink:href="#DejaVuSans-76" transform="translate(1609.419922 0)"/>
     <use xlink:href="#DejaVuSans-61" transform="translate(1668.599609 0)"/>
     <use xlink:href="#DejaVuSans-6c" transform="translate(1729.878906 0)"/>
    </g>
   </g>
   <g id="text_5">
    <!-- PENDING paired effect and interval -->
    <g style="fill: #536b80" transform="translate(373.23625 213.573913) scale(0.1 -0.1)">
     <use xlink:href="#DejaVuSans-50"/>
     <use xlink:href="#DejaVuSans-45" transform="translate(60.302734 0)"/>
     <use xlink:href="#DejaVuSans-4e" transform="translate(123.486328 0)"/>
     <use xlink:href="#DejaVuSans-44" transform="translate(198.291016 0)"/>
     <use xlink:href="#DejaVuSans-49" transform="translate(275.292969 0)"/>
     <use xlink:href="#DejaVuSans-4e" transform="translate(304.785156 0)"/>
     <use xlink:href="#DejaVuSans-47" transform="translate(379.589844 0)"/>
     <use xlink:href="#DejaVuSans-20" transform="translate(457.080078 0)"/>
     <use xlink:href="#DejaVuSans-70" transform="translate(488.867188 0)"/>
     <use xlink:href="#DejaVuSans-61" transform="translate(552.34375 0)"/>
     <use xlink:href="#DejaVuSans-69" transform="translate(613.623047 0)"/>
     <use xlink:href="#DejaVuSans-72" transform="translate(641.40625 0)"/>
     <use xlink:href="#DejaVuSans-65" transform="translate(680.269531 0)"/>
     <use xlink:href="#DejaVuSans-64" transform="translate(741.792969 0)"/>
     <use xlink:href="#DejaVuSans-20" transform="translate(805.269531 0)"/>
     <use xlink:href="#DejaVuSans-65" transform="translate(837.056641 0)"/>
     <use xlink:href="#DejaVuSans-66" transform="translate(898.580078 0)"/>
     <use xlink:href="#DejaVuSans-66" transform="translate(933.785156 0)"/>
     <use xlink:href="#DejaVuSans-65" transform="translate(968.990234 0)"/>
     <use xlink:href="#DejaVuSans-63" transform="translate(1030.513672 0)"/>
     <use xlink:href="#DejaVuSans-74" transform="translate(1085.494141 0)"/>
     <use xlink:href="#DejaVuSans-20" transform="translate(1124.703125 0)"/>
     <use xlink:href="#DejaVuSans-61" transform="translate(1156.490234 0)"/>
     <use xlink:href="#DejaVuSans-6e" transform="translate(1217.769531 0)"/>
     <use xlink:href="#DejaVuSans-64" transform="translate(1281.148438 0)"/>
     <use xlink:href="#DejaVuSans-20" transform="translate(1344.625 0)"/>
     <use xlink:href="#DejaVuSans-69" transform="translate(1376.412109 0)"/>
     <use xlink:href="#DejaVuSans-6e" transform="translate(1404.195312 0)"/>
     <use xlink:href="#DejaVuSans-74" transform="translate(1467.574219 0)"/>
     <use xlink:href="#DejaVuSans-65" transform="translate(1506.783203 0)"/>
     <use xlink:href="#DejaVuSans-72" transform="translate(1568.306641 0)"/>
     <use xlink:href="#DejaVuSans-76" transform="translate(1609.419922 0)"/>
     <use xlink:href="#DejaVuSans-61" transform="translate(1668.599609 0)"/>
     <use xlink:href="#DejaVuSans-6c" transform="translate(1729.878906 0)"/>
    </g>
   </g>
  </g>
  <g id="text_6">
   <!-- LVEF: paired fusion effects -->
   <g style="fill: #173b5a" transform="translate(104.720625 21.637031) scale(0.19 -0.19)">
    <defs>
     <path id="DejaVuSans-Bold-4c" d="M 588 4666 
L 1791 4666 
L 1791 909 
L 3903 909 
L 3903 0 
L 588 0 
L 588 4666 
z
" transform="scale(0.015625)"/>
     <path id="DejaVuSans-Bold-56" d="M 31 4666 
L 1241 4666 
L 2478 1222 
L 3713 4666 
L 4922 4666 
L 3194 0 
L 1759 0 
L 31 4666 
z
" transform="scale(0.015625)"/>
     <path id="DejaVuSans-Bold-45" d="M 588 4666 
L 3834 4666 
L 3834 3756 
L 1791 3756 
L 1791 2888 
L 3713 2888 
L 3713 1978 
L 1791 1978 
L 1791 909 
L 3903 909 
L 3903 0 
L 588 0 
L 588 4666 
z
" transform="scale(0.015625)"/>
     <path id="DejaVuSans-Bold-46" d="M 588 4666 
L 3834 4666 
L 3834 3756 
L 1791 3756 
L 1791 2888 
L 3713 2888 
L 3713 1978 
L 1791 1978 
L 1791 0 
L 588 0 
L 588 4666 
z
" transform="scale(0.015625)"/>
     <path id="DejaVuSans-Bold-3a" d="M 716 3500 
L 1844 3500 
L 1844 2291 
L 716 2291 
L 716 3500 
z
M 716 1209 
L 1844 1209 
L 1844 0 
L 716 0 
L 716 1209 
z
" transform="scale(0.015625)"/>
     <path id="DejaVuSans-Bold-20" transform="scale(0.015625)"/>
     <path id="DejaVuSans-Bold-70" d="M 1656 506 
L 1656 -1331 
L 538 -1331 
L 538 3500 
L 1656 3500 
L 1656 2988 
Q 1888 3294 2169 3439 
Q 2450 3584 2816 3584 
Q 3463 3584 3878 3070 
Q 4294 2556 4294 1747 
Q 4294 938 3878 423 
Q 3463 -91 2816 -91 
Q 2450 -91 2169 54 
Q 1888 200 1656 506 
z
M 2400 2772 
Q 2041 2772 1848 2508 
Q 1656 2244 1656 1747 
Q 1656 1250 1848 986 
Q 2041 722 2400 722 
Q 2759 722 2948 984 
Q 3138 1247 3138 1747 
Q 3138 2247 2948 2509 
Q 2759 2772 2400 2772 
z
" transform="scale(0.015625)"/>
     <path id="DejaVuSans-Bold-61" d="M 2106 1575 
Q 1756 1575 1579 1456 
Q 1403 1338 1403 1106 
Q 1403 894 1545 773 
Q 1688 653 1941 653 
Q 2256 653 2472 879 
Q 2688 1106 2688 1447 
L 2688 1575 
L 2106 1575 
z
M 3816 1997 
L 3816 0 
L 2688 0 
L 2688 519 
Q 2463 200 2181 54 
Q 1900 -91 1497 -91 
Q 953 -91 614 226 
Q 275 544 275 1050 
Q 275 1666 698 1953 
Q 1122 2241 2028 2241 
L 2688 2241 
L 2688 2328 
Q 2688 2594 2478 2717 
Q 2269 2841 1825 2841 
Q 1466 2841 1156 2769 
Q 847 2697 581 2553 
L 581 3406 
Q 941 3494 1303 3539 
Q 1666 3584 2028 3584 
Q 2975 3584 3395 3211 
Q 3816 2838 3816 1997 
z
" transform="scale(0.015625)"/>
     <path id="DejaVuSans-Bold-69" d="M 538 3500 
L 1656 3500 
L 1656 0 
L 538 0 
L 538 3500 
z
M 538 4863 
L 1656 4863 
L 1656 3950 
L 538 3950 
L 538 4863 
z
" transform="scale(0.015625)"/>
     <path id="DejaVuSans-Bold-72" d="M 3138 2547 
Q 2991 2616 2845 2648 
Q 2700 2681 2553 2681 
Q 2122 2681 1889 2404 
Q 1656 2128 1656 1613 
L 1656 0 
L 538 0 
L 538 3500 
L 1656 3500 
L 1656 2925 
Q 1872 3269 2151 3426 
Q 2431 3584 2822 3584 
Q 2878 3584 2943 3579 
Q 3009 3575 3134 3559 
L 3138 2547 
z
" transform="scale(0.015625)"/>
     <path id="DejaVuSans-Bold-65" d="M 4031 1759 
L 4031 1441 
L 1416 1441 
Q 1456 1047 1700 850 
Q 1944 653 2381 653 
Q 2734 653 3104 758 
Q 3475 863 3866 1075 
L 3866 213 
Q 3469 63 3072 -14 
Q 2675 -91 2278 -91 
Q 1328 -91 801 392 
Q 275 875 275 1747 
Q 275 2603 792 3093 
Q 1309 3584 2216 3584 
Q 3041 3584 3536 3087 
Q 4031 2591 4031 1759 
z
M 2881 2131 
Q 2881 2450 2695 2645 
Q 2509 2841 2209 2841 
Q 1884 2841 1681 2658 
Q 1478 2475 1428 2131 
L 2881 2131 
z
" transform="scale(0.015625)"/>
     <path id="DejaVuSans-Bold-64" d="M 2919 2988 
L 2919 4863 
L 4044 4863 
L 4044 0 
L 2919 0 
L 2919 506 
Q 2688 197 2409 53 
Q 2131 -91 1766 -91 
Q 1119 -91 703 423 
Q 288 938 288 1747 
Q 288 2556 703 3070 
Q 1119 3584 1766 3584 
Q 2128 3584 2408 3439 
Q 2688 3294 2919 2988 
z
M 2181 722 
Q 2541 722 2730 984 
Q 2919 1247 2919 1747 
Q 2919 2247 2730 2509 
Q 2541 2772 2181 2772 
Q 1825 2772 1636 2509 
Q 1447 2247 1447 1747 
Q 1447 1247 1636 984 
Q 1825 722 2181 722 
z
" transform="scale(0.015625)"/>
     <path id="DejaVuSans-Bold-66" d="M 2841 4863 
L 2841 4128 
L 2222 4128 
Q 1984 4128 1890 4042 
Q 1797 3956 1797 3744 
L 1797 3500 
L 2753 3500 
L 2753 2700 
L 1797 2700 
L 1797 0 
L 678 0 
L 678 2700 
L 122 2700 
L 122 3500 
L 678 3500 
L 678 3744 
Q 678 4316 997 4589 
Q 1316 4863 1984 4863 
L 2841 4863 
z
" transform="scale(0.015625)"/>
     <path id="DejaVuSans-Bold-75" d="M 500 1363 
L 500 3500 
L 1625 3500 
L 1625 3150 
Q 1625 2866 1622 2436 
Q 1619 2006 1619 1863 
Q 1619 1441 1641 1255 
Q 1663 1069 1716 984 
Q 1784 875 1895 815 
Q 2006 756 2150 756 
Q 2500 756 2700 1025 
Q 2900 1294 2900 1772 
L 2900 3500 
L 4019 3500 
L 4019 0 
L 2900 0 
L 2900 506 
Q 2647 200 2364 54 
Q 2081 -91 1741 -91 
Q 1134 -91 817 281 
Q 500 653 500 1363 
z
" transform="scale(0.015625)"/>
     <path id="DejaVuSans-Bold-73" d="M 3272 3391 
L 3272 2541 
Q 2913 2691 2578 2766 
Q 2244 2841 1947 2841 
Q 1628 2841 1473 2761 
Q 1319 2681 1319 2516 
Q 1319 2381 1436 2309 
Q 1553 2238 1856 2203 
L 2053 2175 
Q 2913 2066 3209 1816 
Q 3506 1566 3506 1031 
Q 3506 472 3093 190 
Q 2681 -91 1863 -91 
Q 1516 -91 1145 -36 
Q 775 19 384 128 
L 384 978 
Q 719 816 1070 734 
Q 1422 653 1784 653 
Q 2113 653 2278 743 
Q 2444 834 2444 1013 
Q 2444 1163 2330 1236 
Q 2216 1309 1875 1350 
L 1678 1375 
Q 931 1469 631 1722 
Q 331 1975 331 2491 
Q 331 3047 712 3315 
Q 1094 3584 1881 3584 
Q 2191 3584 2531 3537 
Q 2872 3491 3272 3391 
z
" transform="scale(0.015625)"/>
     <path id="DejaVuSans-Bold-6f" d="M 2203 2784 
Q 1831 2784 1636 2517 
Q 1441 2250 1441 1747 
Q 1441 1244 1636 976 
Q 1831 709 2203 709 
Q 2569 709 2762 976 
Q 2956 1244 2956 1747 
Q 2956 2250 2762 2517 
Q 2569 2784 2203 2784 
z
M 2203 3584 
Q 3106 3584 3614 3096 
Q 4122 2609 4122 1747 
Q 4122 884 3614 396 
Q 3106 -91 2203 -91 
Q 1297 -91 786 396 
Q 275 884 275 1747 
Q 275 2609 786 3096 
Q 1297 3584 2203 3584 
z
" transform="scale(0.015625)"/>
     <path id="DejaVuSans-Bold-6e" d="M 4056 2131 
L 4056 0 
L 2931 0 
L 2931 347 
L 2931 1631 
Q 2931 2084 2911 2256 
Q 2891 2428 2841 2509 
Q 2775 2619 2662 2680 
Q 2550 2741 2406 2741 
Q 2056 2741 1856 2470 
Q 1656 2200 1656 1722 
L 1656 0 
L 538 0 
L 538 3500 
L 1656 3500 
L 1656 2988 
Q 1909 3294 2193 3439 
Q 2478 3584 2822 3584 
Q 3428 3584 3742 3212 
Q 4056 2841 4056 2131 
z
" transform="scale(0.015625)"/>
     <path id="DejaVuSans-Bold-63" d="M 3366 3391 
L 3366 2478 
Q 3138 2634 2908 2709 
Q 2678 2784 2431 2784 
Q 1963 2784 1702 2511 
Q 1441 2238 1441 1747 
Q 1441 1256 1702 982 
Q 1963 709 2431 709 
Q 2694 709 2930 787 
Q 3166 866 3366 1019 
L 3366 103 
Q 3103 6 2833 -42 
Q 2563 -91 2291 -91 
Q 1344 -91 809 395 
Q 275 881 275 1747 
Q 275 2613 809 3098 
Q 1344 3584 2291 3584 
Q 2566 3584 2833 3536 
Q 3100 3488 3366 3391 
z
" transform="scale(0.015625)"/>
     <path id="DejaVuSans-Bold-74" d="M 1759 4494 
L 1759 3500 
L 2913 3500 
L 2913 2700 
L 1759 2700 
L 1759 1216 
Q 1759 972 1856 886 
Q 1953 800 2241 800 
L 2816 800 
L 2816 0 
L 1856 0 
Q 1194 0 917 276 
Q 641 553 641 1216 
L 641 2700 
L 84 2700 
L 84 3500 
L 641 3500 
L 641 4494 
L 1759 4494 
z
" transform="scale(0.015625)"/>
    </defs>
    <use xlink:href="#DejaVuSans-Bold-4c"/>
    <use xlink:href="#DejaVuSans-Bold-56" transform="translate(49.970703 0)"/>
    <use xlink:href="#DejaVuSans-Bold-45" transform="translate(127.363281 0)"/>
    <use xlink:href="#DejaVuSans-Bold-46" transform="translate(195.673828 0)"/>
    <use xlink:href="#DejaVuSans-Bold-3a" transform="translate(258.484375 0)"/>
    <use xlink:href="#DejaVuSans-Bold-20" transform="translate(298.474609 0)"/>
    <use xlink:href="#DejaVuSans-Bold-70" transform="translate(333.289062 0)"/>
    <use xlink:href="#DejaVuSans-Bold-61" transform="translate(404.871094 0)"/>
    <use xlink:href="#DejaVuSans-Bold-69" transform="translate(472.351562 0)"/>
    <use xlink:href="#DejaVuSans-Bold-72" transform="translate(506.628906 0)"/>
    <use xlink:href="#DejaVuSans-Bold-65" transform="translate(555.945312 0)"/>
    <use xlink:href="#DejaVuSans-Bold-64" transform="translate(623.767578 0)"/>
    <use xlink:href="#DejaVuSans-Bold-20" transform="translate(695.349609 0)"/>
    <use xlink:href="#DejaVuSans-Bold-66" transform="translate(730.164062 0)"/>
    <use xlink:href="#DejaVuSans-Bold-75" transform="translate(773.669922 0)"/>
    <use xlink:href="#DejaVuSans-Bold-73" transform="translate(844.861328 0)"/>
    <use xlink:href="#DejaVuSans-Bold-69" transform="translate(904.382812 0)"/>
    <use xlink:href="#DejaVuSans-Bold-6f" transform="translate(938.660156 0)"/>
    <use xlink:href="#DejaVuSans-Bold-6e" transform="translate(1007.361328 0)"/>
    <use xlink:href="#DejaVuSans-Bold-20" transform="translate(1078.552734 0)"/>
    <use xlink:href="#DejaVuSans-Bold-65" transform="translate(1113.367188 0)"/>
    <use xlink:href="#DejaVuSans-Bold-66" transform="translate(1181.189453 0)"/>
    <use xlink:href="#DejaVuSans-Bold-66" transform="translate(1224.695312 0)"/>
    <use xlink:href="#DejaVuSans-Bold-65" transform="translate(1268.201172 0)"/>
    <use xlink:href="#DejaVuSans-Bold-63" transform="translate(1336.023438 0)"/>
    <use xlink:href="#DejaVuSans-Bold-74" transform="translate(1395.300781 0)"/>
    <use xlink:href="#DejaVuSans-Bold-73" transform="translate(1443.103516 0)"/>
   </g>
  </g>
  <g id="text_7">
   <!-- PENDING — template only; no model results have been inserted. -->
   <g style="fill: #52616e" transform="translate(104.720625 36) scale(0.1 -0.1)">
    <defs>
     <path id="DejaVuSans-2014" d="M 313 1978 
L 6088 1978 
L 6088 1528 
L 313 1528 
L 313 1978 
z
" transform="scale(0.015625)"/>
     <path id="DejaVuSans-79" d="M 2059 -325 
Q 1816 -950 1584 -1140 
Q 1353 -1331 966 -1331 
L 506 -1331 
L 506 -850 
L 844 -850 
Q 1081 -850 1212 -737 
Q 1344 -625 1503 -206 
L 1606 56 
L 191 3500 
L 800 3500 
L 1894 763 
L 2988 3500 
L 3597 3500 
L 2059 -325 
z
" transform="scale(0.015625)"/>
     <path id="DejaVuSans-3b" d="M 750 3309 
L 1409 3309 
L 1409 2516 
L 750 2516 
L 750 3309 
z
M 750 794 
L 1409 794 
L 1409 256 
L 897 -744 
L 494 -744 
L 750 256 
L 750 794 
z
" transform="scale(0.015625)"/>
     <path id="DejaVuSans-68" d="M 3513 2113 
L 3513 0 
L 2938 0 
L 2938 2094 
Q 2938 2591 2744 2837 
Q 2550 3084 2163 3084 
Q 1697 3084 1428 2787 
Q 1159 2491 1159 1978 
L 1159 0 
L 581 0 
L 581 4863 
L 1159 4863 
L 1159 2956 
Q 1366 3272 1645 3428 
Q 1925 3584 2291 3584 
Q 2894 3584 3203 3211 
Q 3513 2838 3513 2113 
z
" transform="scale(0.015625)"/>
     <path id="DejaVuSans-62" d="M 3116 1747 
Q 3116 2381 2855 2742 
Q 2594 3103 2138 3103 
Q 1681 3103 1420 2742 
Q 1159 2381 1159 1747 
Q 1159 1113 1420 752 
Q 1681 391 2138 391 
Q 2594 391 2855 752 
Q 3116 1113 3116 1747 
z
M 1159 2969 
Q 1341 3281 1617 3432 
Q 1894 3584 2278 3584 
Q 2916 3584 3314 3078 
Q 3713 2572 3713 1747 
Q 3713 922 3314 415 
Q 2916 -91 2278 -91 
Q 1894 -91 1617 61 
Q 1341 213 1159 525 
L 1159 0 
L 581 0 
L 581 4863 
L 1159 4863 
L 1159 2969 
z
" transform="scale(0.015625)"/>
     <path id="DejaVuSans-2e" d="M 684 794 
L 1344 794 
L 1344 0 
L 684 0 
L 684 794 
z
" transform="scale(0.015625)"/>
    </defs>
    <use xlink:href="#DejaVuSans-50"/>
    <use xlink:href="#DejaVuSans-45" transform="translate(60.302734 0)"/>
    <use xlink:href="#DejaVuSans-4e" transform="translate(123.486328 0)"/>
    <use xlink:href="#DejaVuSans-44" transform="translate(198.291016 0)"/>
    <use xlink:href="#DejaVuSans-49" transform="translate(275.292969 0)"/>
    <use xlink:href="#DejaVuSans-4e" transform="translate(304.785156 0)"/>
    <use xlink:href="#DejaVuSans-47" transform="translate(379.589844 0)"/>
    <use xlink:href="#DejaVuSans-20" transform="translate(457.080078 0)"/>
    <use xlink:href="#DejaVuSans-2014" transform="translate(488.867188 0)"/>
    <use xlink:href="#DejaVuSans-20" transform="translate(588.867188 0)"/>
    <use xlink:href="#DejaVuSans-74" transform="translate(620.654297 0)"/>
    <use xlink:href="#DejaVuSans-65" transform="translate(659.863281 0)"/>
    <use xlink:href="#DejaVuSans-6d" transform="translate(721.386719 0)"/>
    <use xlink:href="#DejaVuSans-70" transform="translate(818.798828 0)"/>
    <use xlink:href="#DejaVuSans-6c" transform="translate(882.275391 0)"/>
    <use xlink:href="#DejaVuSans-61" transform="translate(910.058594 0)"/>
    <use xlink:href="#DejaVuSans-74" transform="translate(971.337891 0)"/>
    <use xlink:href="#DejaVuSans-65" transform="translate(1010.546875 0)"/>
    <use xlink:href="#DejaVuSans-20" transform="translate(1072.070312 0)"/>
    <use xlink:href="#DejaVuSans-6f" transform="translate(1103.857422 0)"/>
    <use xlink:href="#DejaVuSans-6e" transform="translate(1165.039062 0)"/>
    <use xlink:href="#DejaVuSans-6c" transform="translate(1228.417969 0)"/>
    <use xlink:href="#DejaVuSans-79" transform="translate(1256.201172 0)"/>
    <use xlink:href="#DejaVuSans-3b" transform="translate(1315.380859 0)"/>
    <use xlink:href="#DejaVuSans-20" transform="translate(1349.072266 0)"/>
    <use xlink:href="#DejaVuSans-6e" transform="translate(1380.859375 0)"/>
    <use xlink:href="#DejaVuSans-6f" transform="translate(1444.238281 0)"/>
    <use xlink:href="#DejaVuSans-20" transform="translate(1505.419922 0)"/>
    <use xlink:href="#DejaVuSans-6d" transform="translate(1537.207031 0)"/>
    <use xlink:href="#DejaVuSans-6f" transform="translate(1634.619141 0)"/>
    <use xlink:href="#DejaVuSans-64" transform="translate(1695.800781 0)"/>
    <use xlink:href="#DejaVuSans-65" transform="translate(1759.277344 0)"/>
    <use xlink:href="#DejaVuSans-6c" transform="translate(1820.800781 0)"/>
    <use xlink:href="#DejaVuSans-20" transform="translate(1848.583984 0)"/>
    <use xlink:href="#DejaVuSans-72" transform="translate(1880.371094 0)"/>
    <use xlink:href="#DejaVuSans-65" transform="translate(1919.234375 0)"/>
    <use xlink:href="#DejaVuSans-73" transform="translate(1980.757812 0)"/>
    <use xlink:href="#DejaVuSans-75" transform="translate(2032.857422 0)"/>
    <use xlink:href="#DejaVuSans-6c" transform="translate(2096.236328 0)"/>
    <use xlink:href="#DejaVuSans-74" transform="translate(2124.019531 0)"/>
    <use xlink:href="#DejaVuSans-73" transform="translate(2163.228516 0)"/>
    <use xlink:href="#DejaVuSans-20" transform="translate(2215.328125 0)"/>
    <use xlink:href="#DejaVuSans-68" transform="translate(2247.115234 0)"/>
    <use xlink:href="#DejaVuSans-61" transform="translate(2310.494141 0)"/>
    <use xlink:href="#DejaVuSans-76" transform="translate(2371.773438 0)"/>
    <use xlink:href="#DejaVuSans-65" transform="translate(2430.953125 0)"/>
    <use xlink:href="#DejaVuSans-20" transform="translate(2492.476562 0)"/>
    <use xlink:href="#DejaVuSans-62" transform="translate(2524.263672 0)"/>
    <use xlink:href="#DejaVuSans-65" transform="translate(2587.740234 0)"/>
    <use xlink:href="#DejaVuSans-65" transform="translate(2649.263672 0)"/>
    <use xlink:href="#DejaVuSans-6e" transform="translate(2710.787109 0)"/>
    <use xlink:href="#DejaVuSans-20" transform="translate(2774.166016 0)"/>
    <use xlink:href="#DejaVuSans-69" transform="translate(2805.953125 0)"/>
    <use xlink:href="#DejaVuSans-6e" transform="translate(2833.736328 0)"/>
    <use xlink:href="#DejaVuSans-73" transform="translate(2897.115234 0)"/>
    <use xlink:href="#DejaVuSans-65" transform="translate(2949.214844 0)"/>
    <use xlink:href="#DejaVuSans-72" transform="translate(3010.738281 0)"/>
    <use xlink:href="#DejaVuSans-74" transform="translate(3051.851562 0)"/>
    <use xlink:href="#DejaVuSans-65" transform="translate(3091.060547 0)"/>
    <use xlink:href="#DejaVuSans-64" transform="translate(3152.583984 0)"/>
    <use xlink:href="#DejaVuSans-2e" transform="translate(3216.060547 0)"/>
   </g>
  </g>
  <g id="text_8">
   <!-- Paired subject bootstrap; fixed fitted models. Core Holm family contains all four LVEF + strict-panel claims. -->
   <g transform="translate(112.640625 337.321969) scale(0.09 -0.09)">
    <defs>
     <path id="DejaVuSans-6a" d="M 603 3500 
L 1178 3500 
L 1178 -63 
Q 1178 -731 923 -1031 
Q 669 -1331 103 -1331 
L -116 -1331 
L -116 -844 
L 38 -844 
Q 366 -844 484 -692 
Q 603 -541 603 -63 
L 603 3500 
z
M 603 4863 
L 1178 4863 
L 1178 4134 
L 603 4134 
L 603 4863 
z
" transform="scale(0.015625)"/>
     <path id="DejaVuSans-78" d="M 3513 3500 
L 2247 1797 
L 3578 0 
L 2900 0 
L 1881 1375 
L 863 0 
L 184 0 
L 1544 1831 
L 300 3500 
L 978 3500 
L 1906 2253 
L 2834 3500 
L 3513 3500 
z
" transform="scale(0.015625)"/>
     <path id="DejaVuSans-43" d="M 4122 4306 
L 4122 3641 
Q 3803 3938 3442 4084 
Q 3081 4231 2675 4231 
Q 1875 4231 1450 3742 
Q 1025 3253 1025 2328 
Q 1025 1406 1450 917 
Q 1875 428 2675 428 
Q 3081 428 3442 575 
Q 3803 722 4122 1019 
L 4122 359 
Q 3791 134 3420 21 
Q 3050 -91 2638 -91 
Q 1578 -91 968 557 
Q 359 1206 359 2328 
Q 359 3453 968 4101 
Q 1578 4750 2638 4750 
Q 3056 4750 3426 4639 
Q 3797 4528 4122 4306 
z
" transform="scale(0.015625)"/>
     <path id="DejaVuSans-48" d="M 628 4666 
L 1259 4666 
L 1259 2753 
L 3553 2753 
L 3553 4666 
L 4184 4666 
L 4184 0 
L 3553 0 
L 3553 2222 
L 1259 2222 
L 1259 0 
L 628 0 
L 628 4666 
z
" transform="scale(0.015625)"/>
     <path id="DejaVuSans-4c" d="M 628 4666 
L 1259 4666 
L 1259 531 
L 3531 531 
L 3531 0 
L 628 0 
L 628 4666 
z
" transform="scale(0.015625)"/>
     <path id="DejaVuSans-56" d="M 1831 0 
L 50 4666 
L 709 4666 
L 2188 738 
L 3669 4666 
L 4325 4666 
L 2547 0 
L 1831 0 
z
" transform="scale(0.015625)"/>
     <path id="DejaVuSans-2b" d="M 2944 4013 
L 2944 2272 
L 4684 2272 
L 4684 1741 
L 2944 1741 
L 2944 0 
L 2419 0 
L 2419 1741 
L 678 1741 
L 678 2272 
L 2419 2272 
L 2419 4013 
L 2944 4013 
z
" transform="scale(0.015625)"/>
     <path id="DejaVuSans-2d" d="M 313 2009 
L 1997 2009 
L 1997 1497 
L 313 1497 
L 313 2009 
z
" transform="scale(0.015625)"/>
    </defs>
    <use xlink:href="#DejaVuSans-50"/>
    <use xlink:href="#DejaVuSans-61" transform="translate(55.802734 0)"/>
    <use xlink:href="#DejaVuSans-69" transform="translate(117.082031 0)"/>
    <use xlink:href="#DejaVuSans-72" transform="translate(144.865234 0)"/>
    <use xlink:href="#DejaVuSans-65" transform="translate(183.728516 0)"/>
    <use xlink:href="#DejaVuSans-64" transform="translate(245.251953 0)"/>
    <use xlink:href="#DejaVuSans-20" transform="translate(308.728516 0)"/>
    <use xlink:href="#DejaVuSans-73" transform="translate(340.515625 0)"/>
    <use xlink:href="#DejaVuSans-75" transform="translate(392.615234 0)"/>
    <use xlink:href="#DejaVuSans-62" transform="translate(455.994141 0)"/>
    <use xlink:href="#DejaVuSans-6a" transform="translate(519.470703 0)"/>
    <use xlink:href="#DejaVuSans-65" transform="translate(547.253906 0)"/>
    <use xlink:href="#DejaVuSans-63" transform="translate(608.777344 0)"/>
    <use xlink:href="#DejaVuSans-74" transform="translate(663.757812 0)"/>
    <use xlink:href="#DejaVuSans-20" transform="translate(702.966797 0)"/>
    <use xlink:href="#DejaVuSans-62" transform="translate(734.753906 0)"/>
    <use xlink:href="#DejaVuSans-6f" transform="translate(798.230469 0)"/>
    <use xlink:href="#DejaVuSans-6f" transform="translate(859.412109 0)"/>
    <use xlink:href="#DejaVuSans-74" transform="translate(920.59375 0)"/>
    <use xlink:href="#DejaVuSans-73" transform="translate(959.802734 0)"/>
    <use xlink:href="#DejaVuSans-74" transform="translate(1011.902344 0)"/>
    <use xlink:href="#DejaVuSans-72" transform="translate(1051.111328 0)"/>
    <use xlink:href="#DejaVuSans-61" transform="translate(1092.224609 0)"/>
    <use xlink:href="#DejaVuSans-70" transform="translate(1153.503906 0)"/>
    <use xlink:href="#DejaVuSans-3b" transform="translate(1216.980469 0)"/>
    <use xlink:href="#DejaVuSans-20" transform="translate(1250.671875 0)"/>
    <use xlink:href="#DejaVuSans-66" transform="translate(1282.458984 0)"/>
    <use xlink:href="#DejaVuSans-69" transform="translate(1317.664062 0)"/>
    <use xlink:href="#DejaVuSans-78" transform="translate(1345.447266 0)"/>
    <use xlink:href="#DejaVuSans-65" transform="translate(1401.501953 0)"/>
    <use xlink:href="#DejaVuSans-64" transform="translate(1463.025391 0)"/>
    <use xlink:href="#DejaVuSans-20" transform="translate(1526.501953 0)"/>
    <use xlink:href="#DejaVuSans-66" transform="translate(1558.289062 0)"/>
    <use xlink:href="#DejaVuSans-69" transform="translate(1593.494141 0)"/>
    <use xlink:href="#DejaVuSans-74" transform="translate(1621.277344 0)"/>
    <use xlink:href="#DejaVuSans-74" transform="translate(1660.486328 0)"/>
    <use xlink:href="#DejaVuSans-65" transform="translate(1699.695312 0)"/>
    <use xlink:href="#DejaVuSans-64" transform="translate(1761.21875 0)"/>
    <use xlink:href="#DejaVuSans-20" transform="translate(1824.695312 0)"/>
    <use xlink:href="#DejaVuSans-6d" transform="translate(1856.482422 0)"/>
    <use xlink:href="#DejaVuSans-6f" transform="translate(1953.894531 0)"/>
    <use xlink:href="#DejaVuSans-64" transform="translate(2015.076172 0)"/>
    <use xlink:href="#DejaVuSans-65" transform="translate(2078.552734 0)"/>
    <use xlink:href="#DejaVuSans-6c" transform="translate(2140.076172 0)"/>
    <use xlink:href="#DejaVuSans-73" transform="translate(2167.859375 0)"/>
    <use xlink:href="#DejaVuSans-2e" transform="translate(2219.958984 0)"/>
    <use xlink:href="#DejaVuSans-20" transform="translate(2251.746094 0)"/>
    <use xlink:href="#DejaVuSans-43" transform="translate(2283.533203 0)"/>
    <use xlink:href="#DejaVuSans-6f" transform="translate(2353.357422 0)"/>
    <use xlink:href="#DejaVuSans-72" transform="translate(2414.539062 0)"/>
    <use xlink:href="#DejaVuSans-65" transform="translate(2453.402344 0)"/>
    <use xlink:href="#DejaVuSans-20" transform="translate(2514.925781 0)"/>
    <use xlink:href="#DejaVuSans-48" transform="translate(2546.712891 0)"/>
    <use xlink:href="#DejaVuSans-6f" transform="translate(2621.908203 0)"/>
    <use xlink:href="#DejaVuSans-6c" transform="translate(2683.089844 0)"/>
    <use xlink:href="#DejaVuSans-6d" transform="translate(2710.873047 0)"/>
    <use xlink:href="#DejaVuSans-20" transform="translate(2808.285156 0)"/>
    <use xlink:href="#DejaVuSans-66" transform="translate(2840.072266 0)"/>
    <use xlink:href="#DejaVuSans-61" transform="translate(2875.277344 0)"/>
    <use xlink:href="#DejaVuSans-6d" transform="translate(2936.556641 0)"/>
    <use xlink:href="#DejaVuSans-69" transform="translate(3033.96875 0)"/>
    <use xlink:href="#DejaVuSans-6c" transform="translate(3061.751953 0)"/>
    <use xlink:href="#DejaVuSans-79" transform="translate(3089.535156 0)"/>
    <use xlink:href="#DejaVuSans-20" transform="translate(3148.714844 0)"/>
    <use xlink:href="#DejaVuSans-63" transform="translate(3180.501953 0)"/>
    <use xlink:href="#DejaVuSans-6f" transform="translate(3235.482422 0)"/>
    <use xlink:href="#DejaVuSans-6e" transform="translate(3296.664062 0)"/>
    <use xlink:href="#DejaVuSans-74" transform="translate(3360.042969 0)"/>
    <use xlink:href="#DejaVuSans-61" transform="translate(3399.251953 0)"/>
    <use xlink:href="#DejaVuSans-69" transform="translate(3460.53125 0)"/>
    <use xlink:href="#DejaVuSans-6e" transform="translate(3488.314453 0)"/>
    <use xlink:href="#DejaVuSans-73" transform="translate(3551.693359 0)"/>
    <use xlink:href="#DejaVuSans-20" transform="translate(3603.792969 0)"/>
    <use xlink:href="#DejaVuSans-61" transform="translate(3635.580078 0)"/>
    <use xlink:href="#DejaVuSans-6c" transform="translate(3696.859375 0)"/>
    <use xlink:href="#DejaVuSans-6c" transform="translate(3724.642578 0)"/>
    <use xlink:href="#DejaVuSans-20" transform="translate(3752.425781 0)"/>
    <use xlink:href="#DejaVuSans-66" transform="translate(3784.212891 0)"/>
    <use xlink:href="#DejaVuSans-6f" transform="translate(3819.417969 0)"/>
    <use xlink:href="#DejaVuSans-75" transform="translate(3880.599609 0)"/>
    <use xlink:href="#DejaVuSans-72" transform="translate(3943.978516 0)"/>
    <use xlink:href="#DejaVuSans-20" transform="translate(3985.091797 0)"/>
    <use xlink:href="#DejaVuSans-4c" transform="translate(4016.878906 0)"/>
    <use xlink:href="#DejaVuSans-56" transform="translate(4061.591797 0)"/>
    <use xlink:href="#DejaVuSans-45" transform="translate(4130 0)"/>
    <use xlink:href="#DejaVuSans-46" transform="translate(4193.183594 0)"/>
    <use xlink:href="#DejaVuSans-20" transform="translate(4250.703125 0)"/>
    <use xlink:href="#DejaVuSans-2b" transform="translate(4282.490234 0)"/>
    <use xlink:href="#DejaVuSans-20" transform="translate(4366.279297 0)"/>
    <use xlink:href="#DejaVuSans-73" transform="translate(4398.066406 0)"/>
    <use xlink:href="#DejaVuSans-74" transform="translate(4450.166016 0)"/>
    <use xlink:href="#DejaVuSans-72" transform="translate(4489.375 0)"/>
    <use xlink:href="#DejaVuSans-69" transform="translate(4530.488281 0)"/>
    <use xlink:href="#DejaVuSans-63" transform="translate(4558.271484 0)"/>
    <use xlink:href="#DejaVuSans-74" transform="translate(4613.251953 0)"/>
    <use xlink:href="#DejaVuSans-2d" transform="translate(4652.460938 0)"/>
    <use xlink:href="#DejaVuSans-70" transform="translate(4688.544922 0)"/>
    <use xlink:href="#DejaVuSans-61" transform="translate(4752.021484 0)"/>
    <use xlink:href="#DejaVuSans-6e" transform="translate(4813.300781 0)"/>
    <use xlink:href="#DejaVuSans-65" transform="translate(4876.679688 0)"/>
    <use xlink:href="#DejaVuSans-6c" transform="translate(4938.203125 0)"/>
    <use xlink:href="#DejaVuSans-20" transform="translate(4965.986328 0)"/>
    <use xlink:href="#DejaVuSans-63" transform="translate(4997.773438 0)"/>
    <use xlink:href="#DejaVuSans-6c" transform="translate(5052.753906 0)"/>
    <use xlink:href="#DejaVuSans-61" transform="translate(5080.537109 0)"/>
    <use xlink:href="#DejaVuSans-69" transform="translate(5141.816406 0)"/>
    <use xlink:href="#DejaVuSans-6d" transform="translate(5169.599609 0)"/>
    <use xlink:href="#DejaVuSans-73" transform="translate(5267.011719 0)"/>
    <use xlink:href="#DejaVuSans-2e" transform="translate(5319.111328 0)"/>
   </g>
   <!-- Dashed ±1 EF-point guides, when populated, are expert-inference research margins, not MCID or clinical equivalence. -->
   <g transform="translate(112.640625 347.4) scale(0.09 -0.09)">
    <defs>
     <path id="DejaVuSans-b1" d="M 2944 4013 
L 2944 2803 
L 4684 2803 
L 4684 2272 
L 2944 2272 
L 2944 1063 
L 2419 1063 
L 2419 2272 
L 678 2272 
L 678 2803 
L 2419 2803 
L 2419 4013 
L 2944 4013 
z
M 678 531 
L 4684 531 
L 4684 0 
L 678 0 
L 678 531 
z
" transform="scale(0.015625)"/>
     <path id="DejaVuSans-31" d="M 794 531 
L 1825 531 
L 1825 4091 
L 703 3866 
L 703 4441 
L 1819 4666 
L 2450 4666 
L 2450 531 
L 3481 531 
L 3481 0 
L 794 0 
L 794 531 
z
" transform="scale(0.015625)"/>
     <path id="DejaVuSans-77" d="M 269 3500 
L 844 3500 
L 1563 769 
L 2278 3500 
L 2956 3500 
L 3675 769 
L 4391 3500 
L 4966 3500 
L 4050 0 
L 3372 0 
L 2619 2869 
L 1863 0 
L 1184 0 
L 269 3500 
z
" transform="scale(0.015625)"/>
     <path id="DejaVuSans-71" d="M 947 1747 
Q 947 1113 1208 752 
Q 1469 391 1925 391 
Q 2381 391 2643 752 
Q 2906 1113 2906 1747 
Q 2906 2381 2643 2742 
Q 2381 3103 1925 3103 
Q 1469 3103 1208 2742 
Q 947 2381 947 1747 
z
M 2906 525 
Q 2725 213 2448 61 
Q 2172 -91 1784 -91 
Q 1150 -91 751 415 
Q 353 922 353 1747 
Q 353 2572 751 3078 
Q 1150 3584 1784 3584 
Q 2172 3584 2448 3432 
Q 2725 3281 2906 2969 
L 2906 3500 
L 3481 3500 
L 3481 -1331 
L 2906 -1331 
L 2906 525 
z
" transform="scale(0.015625)"/>
    </defs>
    <use xlink:href="#DejaVuSans-44"/>
    <use xlink:href="#DejaVuSans-61" transform="translate(77.001953 0)"/>
    <use xlink:href="#DejaVuSans-73" transform="translate(138.28125 0)"/>
    <use xlink:href="#DejaVuSans-68" transform="translate(190.380859 0)"/>
    <use xlink:href="#DejaVuSans-65" transform="translate(253.759766 0)"/>
    <use xlink:href="#DejaVuSans-64" transform="translate(315.283203 0)"/>
    <use xlink:href="#DejaVuSans-20" transform="translate(378.759766 0)"/>
    <use xlink:href="#DejaVuSans-b1" transform="translate(410.546875 0)"/>
    <use xlink:href="#DejaVuSans-31" transform="translate(494.335938 0)"/>
    <use xlink:href="#DejaVuSans-20" transform="translate(557.958984 0)"/>
    <use xlink:href="#DejaVuSans-45" transform="translate(589.746094 0)"/>
    <use xlink:href="#DejaVuSans-46" transform="translate(652.929688 0)"/>
    <use xlink:href="#DejaVuSans-2d" transform="translate(710.449219 0)"/>
    <use xlink:href="#DejaVuSans-70" transform="translate(746.533203 0)"/>
    <use xlink:href="#DejaVuSans-6f" transform="translate(810.009766 0)"/>
    <use xlink:href="#DejaVuSans-69" transform="translate(871.191406 0)"/>
    <use xlink:href="#DejaVuSans-6e" transform="translate(898.974609 0)"/>
    <use xlink:href="#DejaVuSans-74" transform="translate(962.353516 0)"/>
    <use xlink:href="#DejaVuSans-20" transform="translate(1001.5625 0)"/>
    <use xlink:href="#DejaVuSans-67" transform="translate(1033.349609 0)"/>
    <use xlink:href="#DejaVuSans-75" transform="translate(1096.826172 0)"/>
    <use xlink:href="#DejaVuSans-69" transform="translate(1160.205078 0)"/>
    <use xlink:href="#DejaVuSans-64" transform="translate(1187.988281 0)"/>
    <use xlink:href="#DejaVuSans-65" transform="translate(1251.464844 0)"/>
    <use xlink:href="#DejaVuSans-73" transform="translate(1312.988281 0)"/>
    <use xlink:href="#DejaVuSans-2c" transform="translate(1365.087891 0)"/>
    <use xlink:href="#DejaVuSans-20" transform="translate(1396.875 0)"/>
    <use xlink:href="#DejaVuSans-77" transform="translate(1428.662109 0)"/>
    <use xlink:href="#DejaVuSans-68" transform="translate(1510.449219 0)"/>
    <use xlink:href="#DejaVuSans-65" transform="translate(1573.828125 0)"/>
    <use xlink:href="#DejaVuSans-6e" transform="translate(1635.351562 0)"/>
    <use xlink:href="#DejaVuSans-20" transform="translate(1698.730469 0)"/>
    <use xlink:href="#DejaVuSans-70" transform="translate(1730.517578 0)"/>
    <use xlink:href="#DejaVuSans-6f" transform="translate(1793.994141 0)"/>
    <use xlink:href="#DejaVuSans-70" transform="translate(1855.175781 0)"/>
    <use xlink:href="#DejaVuSans-75" transform="translate(1918.652344 0)"/>
    <use xlink:href="#DejaVuSans-6c" transform="translate(1982.03125 0)"/>
    <use xlink:href="#DejaVuSans-61" transform="translate(2009.814453 0)"/>
    <use xlink:href="#DejaVuSans-74" transform="translate(2071.09375 0)"/>
    <use xlink:href="#DejaVuSans-65" transform="translate(2110.302734 0)"/>
    <use xlink:href="#DejaVuSans-64" transform="translate(2171.826172 0)"/>
    <use xlink:href="#DejaVuSans-2c" transform="translate(2235.302734 0)"/>
    <use xlink:href="#DejaVuSans-20" transform="translate(2267.089844 0)"/>
    <use xlink:href="#DejaVuSans-61" transform="translate(2298.876953 0)"/>
    <use xlink:href="#DejaVuSans-72" transform="translate(2360.15625 0)"/>
    <use xlink:href="#DejaVuSans-65" transform="translate(2399.019531 0)"/>
    <use xlink:href="#DejaVuSans-20" transform="translate(2460.542969 0)"/>
    <use xlink:href="#DejaVuSans-65" transform="translate(2492.330078 0)"/>
    <use xlink:href="#DejaVuSans-78" transform="translate(2552.103516 0)"/>
    <use xlink:href="#DejaVuSans-70" transform="translate(2611.283203 0)"/>
    <use xlink:href="#DejaVuSans-65" transform="translate(2674.759766 0)"/>
    <use xlink:href="#DejaVuSans-72" transform="translate(2736.283203 0)"/>
    <use xlink:href="#DejaVuSans-74" transform="translate(2777.396484 0)"/>
    <use xlink:href="#DejaVuSans-2d" transform="translate(2816.605469 0)"/>
    <use xlink:href="#DejaVuSans-69" transform="translate(2852.689453 0)"/>
    <use xlink:href="#DejaVuSans-6e" transform="translate(2880.472656 0)"/>
    <use xlink:href="#DejaVuSans-66" transform="translate(2943.851562 0)"/>
    <use xlink:href="#DejaVuSans-65" transform="translate(2979.056641 0)"/>
    <use xlink:href="#DejaVuSans-72" transform="translate(3040.580078 0)"/>
    <use xlink:href="#DejaVuSans-65" transform="translate(3079.443359 0)"/>
    <use xlink:href="#DejaVuSans-6e" transform="translate(3140.966797 0)"/>
    <use xlink:href="#DejaVuSans-63" transform="translate(3204.345703 0)"/>
    <use xlink:href="#DejaVuSans-65" transform="translate(3259.326172 0)"/>
    <use xlink:href="#DejaVuSans-20" transform="translate(3320.849609 0)"/>
    <use xlink:href="#DejaVuSans-72" transform="translate(3352.636719 0)"/>
    <use xlink:href="#DejaVuSans-65" transform="translate(3391.5 0)"/>
    <use xlink:href="#DejaVuSans-73" transform="translate(3453.023438 0)"/>
    <use xlink:href="#DejaVuSans-65" transform="translate(3505.123047 0)"/>
    <use xlink:href="#DejaVuSans-61" transform="translate(3566.646484 0)"/>
    <use xlink:href="#DejaVuSans-72" transform="translate(3627.925781 0)"/>
    <use xlink:href="#DejaVuSans-63" transform="translate(3666.789062 0)"/>
    <use xlink:href="#DejaVuSans-68" transform="translate(3721.769531 0)"/>
    <use xlink:href="#DejaVuSans-20" transform="translate(3785.148438 0)"/>
    <use xlink:href="#DejaVuSans-6d" transform="translate(3816.935547 0)"/>
    <use xlink:href="#DejaVuSans-61" transform="translate(3914.347656 0)"/>
    <use xlink:href="#DejaVuSans-72" transform="translate(3975.626953 0)"/>
    <use xlink:href="#DejaVuSans-67" transform="translate(4014.990234 0)"/>
    <use xlink:href="#DejaVuSans-69" transform="translate(4078.466797 0)"/>
    <use xlink:href="#DejaVuSans-6e" transform="translate(4106.25 0)"/>
    <use xlink:href="#DejaVuSans-73" transform="translate(4169.628906 0)"/>
    <use xlink:href="#DejaVuSans-2c" transform="translate(4221.728516 0)"/>
    <use xlink:href="#DejaVuSans-20" transform="translate(4253.515625 0)"/>
    <use xlink:href="#DejaVuSans-6e" transform="translate(4285.302734 0)"/>
    <use xlink:href="#DejaVuSans-6f" transform="translate(4348.681641 0)"/>
    <use xlink:href="#DejaVuSans-74" transform="translate(4409.863281 0)"/>
    <use xlink:href="#DejaVuSans-20" transform="translate(4449.072266 0)"/>
    <use xlink:href="#DejaVuSans-4d" transform="translate(4480.859375 0)"/>
    <use xlink:href="#DejaVuSans-43" transform="translate(4567.138672 0)"/>
    <use xlink:href="#DejaVuSans-49" transform="translate(4636.962891 0)"/>
    <use xlink:href="#DejaVuSans-44" transform="translate(4666.455078 0)"/>
    <use xlink:href="#DejaVuSans-20" transform="translate(4743.457031 0)"/>
    <use xlink:href="#DejaVuSans-6f" transform="translate(4775.244141 0)"/>
    <use xlink:href="#DejaVuSans-72" transform="translate(4836.425781 0)"/>
    <use xlink:href="#DejaVuSans-20" transform="translate(4877.539062 0)"/>
    <use xlink:href="#DejaVuSans-63" transform="translate(4909.326172 0)"/>
    <use xlink:href="#DejaVuSans-6c" transform="translate(4964.306641 0)"/>
    <use xlink:href="#DejaVuSans-69" transform="translate(4992.089844 0)"/>
    <use xlink:href="#DejaVuSans-6e" transform="translate(5019.873047 0)"/>
    <use xlink:href="#DejaVuSans-69" transform="translate(5083.251953 0)"/>
    <use xlink:href="#DejaVuSans-63" transform="translate(5111.035156 0)"/>
    <use xlink:href="#DejaVuSans-61" transform="translate(5166.015625 0)"/>
    <use xlink:href="#DejaVuSans-6c" transform="translate(5227.294922 0)"/>
    <use xlink:href="#DejaVuSans-20" transform="translate(5255.078125 0)"/>
    <use xlink:href="#DejaVuSans-65" transform="translate(5286.865234 0)"/>
    <use xlink:href="#DejaVuSans-71" transform="translate(5348.388672 0)"/>
    <use xlink:href="#DejaVuSans-75" transform="translate(5411.865234 0)"/>
    <use xlink:href="#DejaVuSans-69" transform="translate(5475.244141 0)"/>
    <use xlink:href="#DejaVuSans-76" transform="translate(5503.027344 0)"/>
    <use xlink:href="#DejaVuSans-61" transform="translate(5562.207031 0)"/>
    <use xlink:href="#DejaVuSans-6c" transform="translate(5623.486328 0)"/>
    <use xlink:href="#DejaVuSans-65" transform="translate(5651.269531 0)"/>
    <use xlink:href="#DejaVuSans-6e" transform="translate(5712.792969 0)"/>
    <use xlink:href="#DejaVuSans-63" transform="translate(5776.171875 0)"/>
    <use xlink:href="#DejaVuSans-65" transform="translate(5831.152344 0)"/>
    <use xlink:href="#DejaVuSans-2e" transform="translate(5892.675781 0)"/>
   </g>
  </g>
 </g>
</svg>
